<?xml version="1.0" encoding="UTF-8"?><svg id="b" xmlns="http://www.w3.org/2000/svg" viewBox="0 0 255.51 35.66"><g id="c"><path d="M74.3,30.44V5.21h11.16c1.16,0,2.23.24,3.22.73.98.49,1.83,1.13,2.54,1.92s1.27,1.69,1.67,2.7c.4,1.01.6,2.02.6,3.04,0,1.63-.41,3.12-1.23,4.46-.82,1.34-1.93,2.3-3.32,2.9l5.76,9.49h-5.51l-5.15-8.46h-4.83v8.46h-4.9ZM79.21,17.68h6.15c.45,0,.87-.11,1.26-.32.39-.21.73-.5,1.01-.87s.51-.8.67-1.3c.17-.5.25-1.03.25-1.6s-.09-1.14-.28-1.63c-.19-.5-.44-.93-.76-1.3-.32-.37-.69-.65-1.1-.85-.42-.2-.83-.3-1.26-.3h-5.93v8.17Z" style="fill:#fff;"/><path d="M109.59,30.62c-1.85,0-3.52-.36-5.03-1.08-1.5-.72-2.8-1.68-3.87-2.88-1.08-1.2-1.91-2.56-2.51-4.11-.59-1.54-.89-3.12-.89-4.73s.31-3.29.94-4.83c.63-1.54,1.49-2.9,2.59-4.09,1.1-1.18,2.41-2.13,3.93-2.83,1.52-.7,3.16-1.05,4.94-1.05s3.49.37,4.99,1.12c1.5.75,2.79,1.72,3.86,2.93s1.9,2.58,2.49,4.12c.59,1.54.89,3.1.89,4.69,0,1.68-.31,3.29-.92,4.82s-1.47,2.88-2.56,4.05-2.39,2.11-3.91,2.81c-1.52.7-3.16,1.05-4.94,1.05ZM102.27,17.82c0,1.09.17,2.14.5,3.16.33,1.02.81,1.92,1.44,2.7s1.4,1.41,2.31,1.88c.91.47,1.95.71,3.11.71s2.23-.24,3.15-.73c.91-.49,1.68-1.13,2.31-1.94.63-.8,1.1-1.71,1.42-2.72.32-1.01.48-2.03.48-3.07s-.17-2.14-.52-3.16c-.34-1.02-.83-1.92-1.46-2.7-.63-.78-1.4-1.4-2.31-1.87-.91-.46-1.94-.69-3.07-.69s-2.24.24-3.16.73-1.69,1.12-2.31,1.92c-.62.79-1.08,1.69-1.4,2.7-.32,1.01-.48,2.03-.48,3.07Z" style="fill:#fff;"/><path d="M146.91,23.94c0,1.07-.21,2-.64,2.81-.43.81-1.01,1.48-1.76,2.03-.75.54-1.61.96-2.59,1.24-.98.28-2.03.43-3.15.43h-12.19V5.21h13.5c.88,0,1.67.19,2.38.57s1.31.87,1.81,1.47c.5.6.88,1.29,1.16,2.06.27.77.41,1.55.41,2.33,0,1.23-.31,2.39-.92,3.46-.62,1.08-1.52,1.88-2.7,2.4,1.45.43,2.59,1.19,3.43,2.29.84,1.1,1.26,2.48,1.26,4.14ZM131.48,9.4v6.36h6.54c.83,0,1.53-.29,2.11-.85.58-.57.87-1.35.87-2.35s-.27-1.74-.8-2.31-1.19-.85-1.97-.85h-6.75ZM141.97,23.01c0-.45-.08-.88-.23-1.3-.15-.41-.36-.78-.62-1.08-.26-.31-.57-.55-.92-.73s-.75-.27-1.17-.27h-7.53v6.65h7.29c.45,0,.87-.08,1.26-.25s.73-.4,1.01-.69c.28-.3.51-.65.68-1.05.17-.4.25-.83.25-1.28Z" style="fill:#fff;"/><path d="M162.4,30.62c-1.85,0-3.52-.36-5.03-1.08-1.5-.72-2.8-1.68-3.87-2.88-1.08-1.2-1.91-2.56-2.51-4.11-.59-1.54-.89-3.12-.89-4.73s.31-3.29.94-4.83c.63-1.54,1.49-2.9,2.59-4.09,1.1-1.18,2.41-2.13,3.93-2.83,1.52-.7,3.16-1.05,4.94-1.05s3.49.37,4.99,1.12c1.5.75,2.79,1.72,3.86,2.93s1.9,2.58,2.49,4.12c.59,1.54.89,3.1.89,4.69,0,1.68-.31,3.29-.92,4.82s-1.47,2.88-2.56,4.05-2.39,2.11-3.91,2.81c-1.52.7-3.16,1.05-4.94,1.05ZM155.08,17.82c0,1.09.17,2.14.5,3.16.33,1.02.81,1.92,1.44,2.7s1.4,1.41,2.31,1.88c.91.47,1.95.71,3.11.71s2.23-.24,3.15-.73c.91-.49,1.68-1.13,2.31-1.94.63-.8,1.1-1.71,1.42-2.72.32-1.01.48-2.03.48-3.07s-.17-2.14-.52-3.16c-.34-1.02-.83-1.92-1.46-2.7-.63-.78-1.4-1.4-2.31-1.87-.91-.46-1.94-.69-3.07-.69s-2.24.24-3.16.73-1.69,1.12-2.31,1.92c-.62.79-1.08,1.69-1.4,2.7-.32,1.01-.48,2.03-.48,3.07Z" style="fill:#fff;"/><path d="M197.09,9.51h-8.07v20.93h-4.87V9.51h-8.07v-4.3h21v4.3Z" style="fill:#fff;"/><path d="M201.1,30.44V5.21h4.9v25.23h-4.9Z" style="fill:#fff;"/><path d="M210.63,17.65c0-1.54.28-3.06.83-4.57.56-1.5,1.37-2.85,2.43-4.03s2.37-2.14,3.91-2.88,3.29-1.1,5.26-1.1c2.32,0,4.33.51,6.02,1.53,1.69,1.02,2.96,2.34,3.79,3.98l-3.77,2.59c-.33-.71-.74-1.31-1.21-1.79-.47-.49-.98-.87-1.53-1.15-.54-.29-1.11-.49-1.71-.62-.59-.13-1.17-.2-1.74-.2-1.23,0-2.3.25-3.22.75-.91.5-1.67,1.14-2.27,1.94-.6.79-1.06,1.69-1.37,2.7-.31,1.01-.46,2.01-.46,3,0,1.11.18,2.19.53,3.22.36,1.03.86,1.94,1.51,2.72.65.78,1.43,1.41,2.35,1.88.91.47,1.91.71,3,.71.57,0,1.16-.07,1.78-.21.62-.14,1.2-.37,1.76-.68.56-.31,1.07-.7,1.55-1.19.47-.49.85-1.07,1.14-1.76l4.02,2.31c-.4.95-.98,1.78-1.72,2.51s-1.59,1.33-2.52,1.83c-.94.5-1.94.88-3,1.14-1.07.26-2.11.39-3.13.39-1.8,0-3.45-.38-4.94-1.14-1.49-.76-2.78-1.75-3.86-2.97-1.08-1.22-1.92-2.61-2.52-4.16s-.91-3.13-.91-4.75Z" style="fill:#fff;"/><path d="M252.45,11.82c-.17-.17-.47-.39-.91-.67-.44-.28-.97-.56-1.6-.83-.63-.27-1.31-.5-2.04-.69s-1.48-.28-2.24-.28c-1.35,0-2.36.25-3.02.75s-.99,1.2-.99,2.1c0,.52.12.95.37,1.3.25.34.61.65,1.08.91.47.26,1.07.5,1.79.71.72.21,1.56.44,2.51.68,1.23.33,2.35.69,3.36,1.07,1.01.38,1.86.85,2.56,1.42.7.57,1.24,1.25,1.62,2.04s.57,1.77.57,2.93c0,1.35-.25,2.5-.76,3.46-.51.96-1.2,1.74-2.06,2.33-.87.59-1.86,1.02-2.99,1.3s-2.3.41-3.54.41c-1.9,0-3.77-.28-5.62-.85-1.85-.57-3.51-1.37-4.97-2.42l2.17-4.23c.21.21.6.49,1.16.83.56.34,1.21.69,1.97,1.03.76.34,1.6.63,2.52.87.92.24,1.87.36,2.84.36,2.7,0,4.05-.86,4.05-2.59,0-.54-.15-1.01-.46-1.39-.31-.38-.75-.71-1.32-1s-1.26-.54-2.06-.78c-.81-.24-1.71-.5-2.7-.78-1.21-.33-2.26-.69-3.15-1.08s-1.63-.85-2.22-1.39c-.59-.53-1.04-1.15-1.33-1.85-.3-.7-.44-1.53-.44-2.5,0-1.28.24-2.42.71-3.41.47-1,1.13-1.82,1.97-2.49.84-.66,1.82-1.17,2.93-1.51,1.11-.34,2.31-.52,3.59-.52,1.78,0,3.41.28,4.9.84,1.49.56,2.8,1.21,3.91,1.97l-2.17,3.98Z" style="fill:#fff;"/><path d="M63.58,32.44c.19.07.35.18.48.31.14.13.24.28.32.44.1.21.15.43.15.67,0,.27-.07.52-.2.77-.14.24-.32.43-.56.57-.24.14-.49.2-.76.2s-.51-.07-.75-.2c-.24-.14-.43-.32-.56-.57-.14-.24-.2-.5-.2-.77,0-.23.04-.44.13-.62.09-.19.2-.35.33-.47.13-.13.28-.23.43-.3.2-.09.41-.14.63-.14.19,0,.38.04.57.11ZM64.66,33.11c-.08-.18-.2-.35-.35-.51-.15-.16-.34-.29-.56-.39-.22-.1-.47-.16-.73-.16s-.54.06-.78.18c-.18.09-.34.2-.5.35-.15.15-.28.33-.37.56-.1.22-.15.46-.15.71,0,.31.08.61.24.9.16.28.38.51.66.66.28.16.58.24.9.24.28,0,.54-.06.79-.18.19-.09.36-.22.52-.38.16-.16.28-.35.37-.57.09-.22.13-.44.13-.67,0-.26-.05-.51-.16-.75ZM62.96,34.12c.11,0,.2.02.26.05.06.03.1.07.13.13.03.05.04.14.05.26,0,.17.02.27.03.3h.42c-.02-.06-.03-.14-.03-.26,0-.12,0-.2-.02-.26-.02-.08-.04-.14-.08-.2-.04-.05-.08-.1-.14-.13-.06-.03-.13-.06-.22-.07.1-.01.18-.03.22-.05.08-.04.14-.1.19-.18.05-.08.07-.17.07-.27s-.02-.19-.07-.27c-.05-.08-.1-.14-.18-.19-.07-.05-.16-.08-.28-.1-.08-.01-.2-.02-.35-.02h-.71v1.99h.44v-.73h.25ZM63.19,33.2c.07.02.12.05.16.1.04.05.06.11.06.17,0,.06-.02.12-.05.17-.03.05-.08.09-.15.12-.07.03-.14.04-.21.04h-.29v-.63h.29c.06,0,.12,0,.19.03Z" style="fill:#fc3;"/><polygon points="56.18 26.56 45.68 9.1 48.57 9.1 48.57 0 31.09 0 31.09 9.1 33.98 9.1 29.96 15.77 25.95 9.1 28.85 9.1 28.85 0 11.36 0 11.36 9.1 14.25 9.1 3.75 26.56 0 26.56 0 35.66 17.83 35.66 17.83 26.56 14.63 26.56 20.1 17.46 22.22 20.99 20.19 20.99 20.19 30.09 39.74 30.09 39.74 20.99 37.71 20.99 39.83 17.46 45.3 26.56 42.1 26.56 42.1 35.66 59.93 35.66 59.93 26.56 56.18 26.56" style="fill:#fc3;"/></g></svg>