<?xml version="1.0" encoding="UTF-8" standalone="no"?>
<!DOCTYPE svg PUBLIC "-//W3C//DTD SVG 1.1//EN" "http://www.w3.org/Graphics/SVG/1.1/DTD/svg11.dtd">
<svg xmlns="http://www.w3.org/2000/svg" xmlns:xlink="http://www.w3.org/1999/xlink" version="1.1" width="800pt" height="800pt" viewBox="0 0 800 800">
<g enable-background="new">
<g id="Layer-1" data-name="Layer 1">
<clipPath id="cp0">
<path transform="matrix(2.7777777,0,0,-2.7777777,0,800)" d="M 0 288 L 288 288 L 288 0 L 0 0 Z "/>
</clipPath>
<g clip-path="url(#cp0)">
<path transform="matrix(2.7777777,0,0,-2.7777777,103.03,258.33055)" d="M 0 0 C 5.447 11.399 12.693 21.612 21.581 30.699 C 38.386 47.881 58.572 59.144 82.02 64.046 C 110.706 70.044 138.353 66.46 164.29 52.568 C 186.56 40.641 203.348 23.2 214.58 .612 C 214.229 -.177 213.653 -.116 213.097 -.116 C 209.817 -.114 206.53 .023 203.263 -.169 C 201.433 -.276 200.677 .663 199.897 1.982 C 197.041 6.814 193.841 11.396 190.253 15.732 C 186.703 20.023 182.827 23.971 178.715 27.7 C 174.964 31.101 170.937 34.147 166.723 36.959 C 163.272 39.262 159.655 41.275 155.996 43.198 C 153.457 44.532 150.774 45.599 148.13 46.722 C 144.711 48.173 141.183 49.318 137.629 50.393 C 135.361 51.079 133.02 51.466 130.751 52.103 C 127.541 53.004 124.26 53.483 120.986 53.89 C 114.837 54.652 108.66 55.008 102.442 54.556 C 99.559 54.347 96.669 54.195 93.807 53.807 C 90.673 53.382 87.559 52.858 84.461 52.157 C 80.333 51.222 76.265 50.122 72.26 48.768 C 67.63 47.202 63.109 45.364 58.788 43.079 C 55.87 41.536 52.944 39.983 50.163 38.214 C 43.955 34.265 38.196 29.74 32.872 24.63 C 28.701 20.628 24.909 16.317 21.444 11.721 C 18.85 8.277 16.454 4.68 14.361 .897 C 13.847 -.033 13.242 -.604 12.054 -.581 C 8.519 -.514 4.98 -.561 1.444 -.551 C 1.021 -.55 .546 -.683 0 0 " fill="#061689"/>
<path transform="matrix(2.7777777,0,0,-2.7777777,94.69389,525.26028)" d="M 0 0 C 2.343 0 4.452 .054 6.557 -.016 C 8.376 -.076 10.182 .437 12.017 .003 C 12.635 -.143 13.004 -.396 13.254 -.924 C 16.877 -8.581 21.352 -15.708 26.627 -22.328 C 32.547 -29.759 39.402 -36.214 47.075 -41.811 C 52.756 -45.954 58.805 -49.493 65.146 -52.486 C 69.575 -54.577 74.142 -56.442 78.85 -57.798 C 84.153 -59.324 89.522 -60.606 95.033 -61.313 C 100.516 -62.016 105.987 -62.608 111.517 -62.597 C 111.691 -62.596 111.866 -62.654 112.113 -62.698 L 112.113 -74.531 C 86.378 -74.751 62.941 -67.765 41.885 -53.14 C 22.95 -39.988 9.022 -22.669 .018 -1.426 C -.122 -1.097 0 -.655 0 0 " fill="#061689"/>
<path transform="matrix(2.7777777,0,0,-2.7777777,758.2086,276.94224)" d="M 0 0 L 0 -1.704 C 0 -22.295 -.019 -42.887 .016 -63.479 C .022 -67.425 -1.209 -71.036 -2.839 -74.5 C -4.655 -78.357 -7.128 -81.774 -10.622 -84.368 C -14.104 -86.954 -17.92 -88.748 -22.13 -89.831 C -25.916 -90.806 -29.766 -91.246 -33.626 -91.267 C -36.941 -91.284 -40.294 -91.326 -43.586 -90.614 C -45.68 -90.162 -47.821 -89.931 -49.842 -89.146 C -50.259 -88.984 -50.667 -88.875 -51.079 -88.354 C -49.855 -86.356 -48.817 -84.195 -47.169 -82.596 C -41.923 -83.457 -36.948 -84.011 -31.824 -83.074 C -25.287 -81.881 -19.771 -79.233 -15.873 -73.685 C -13.608 -70.463 -12.802 -66.776 -12.545 -62.955 C -11.566 -48.436 -12.309 -33.894 -12.096 -19.364 C -12.046 -15.951 -12.088 -12.537 -12.088 -9.552 C -12.744 -8.556 -13.33 -8.67 -13.87 -8.67 C -19.765 -8.666 -25.658 -8.662 -31.553 -8.673 C -32.334 -8.675 -33.075 -8.567 -33.873 -8.201 L -33.873 0 Z " fill="#061689"/>
<path transform="matrix(2.7777777,0,0,-2.7777777,501.44303,301.5475)" d="M 0 0 L -28.486 0 C -27.768 3.178 -26.779 6.041 -25.676 8.877 L 12.536 8.877 C 12.994 -21.078 12.817 -50.949 12.857 -80.934 L 6.614 -80.934 L .324 -80.934 C .306 -53.967 .415 -27.088 0 0 " fill="#061689"/>
<path transform="matrix(2.7777777,0,0,-2.7777777,233.02667,277.15916)" d="M 0 0 C .433 -8.642 .239 -17.271 .271 -26.037 C -3.542 -26.037 -6.995 -26.066 -10.446 -26.017 C -11.327 -26.004 -11.373 -25.249 -11.372 -24.543 C -11.364 -19.535 -11.368 -14.527 -11.368 -9.527 C -11.911 -8.927 -12.636 -8.823 -13.3 -8.834 C -31.111 -9.146 -48.924 -8.984 -66.735 -9.061 C -68.348 -9.067 -68.928 -8.482 -68.854 -6.951 C -68.745 -4.693 -69.02 -2.416 -68.637 0 Z " fill="#061689"/>
<path transform="matrix(2.7777777,0,0,-2.7777777,369.37666,277.37083)" d="M 0 0 C .971 -1.902 1.334 -4.225 2.017 -6.438 C 2.851 -9.143 3.597 -11.876 4.359 -14.604 C 5.367 -18.21 6.346 -21.826 7.354 -25.433 C 8.076 -28.021 8.673 -30.659 9.604 -33.172 C 10.576 -35.792 10.662 -38.208 9.499 -40.809 C 8.568 -42.891 8.032 -45.15 7.358 -47.343 C 7.236 -47.741 7.107 -48.1 6.781 -48.457 L 2.736 -48.457 C 1.6 -46.655 1.291 -44.467 .601 -42.434 C -.719 -38.548 -1.911 -34.618 -3.129 -30.698 C -4.141 -27.441 -5.076 -24.161 -6.113 -20.912 C -7.274 -17.272 -8.546 -13.667 -9.695 -10.024 C -10.032 -8.955 -10.7 -8.711 -11.67 -8.73 C -15.707 -8.811 -19.758 -9.119 -23.776 -8.882 C -28.45 -8.606 -33.119 -9.375 -37.774 -8.721 C -37.952 -8.696 -38.126 -8.644 -38.432 -8.575 L -38.432 0 Z " fill="#061689"/>
<path transform="matrix(2.7777777,0,0,-2.7777777,91.14583,479.7986)" d="M 0 0 L 0 15.786 C 3.772 16.114 7.479 16.312 11.302 15.901 L 11.302 9.399 C 24.625 8.816 37.865 9.857 51.215 9.218 L 51.215 -16.704 C 50.707 -17.124 50.07 -17.211 49.396 -17.209 C 46.855 -17.2 44.312 -17.125 41.775 -17.234 C 40.15 -17.306 39.708 -16.502 39.709 -15.121 C 39.71 -10.592 39.709 -6.063 39.708 -1.534 L 39.708 0 Z " fill="#061689"/>
<path transform="matrix(2.7777777,0,0,-2.7777777,178.12776,437.29917)" d="M 0 0 C -.673 .566 -.672 1.189 -.672 1.825 C -.666 6.062 -.671 10.297 -.666 14.533 C -.666 15.125 -.651 15.712 -1.184 16.373 L -31.427 16.373 C -31.106 21.687 -31.913 26.827 -31.352 32.197 L -20.316 32.197 C -19.503 30.277 -20.281 28.06 -19.843 25.832 L 10.206 25.832 C 10.915 25.289 10.979 24.724 10.979 24.116 C 10.975 16.564 10.974 9.013 10.98 1.462 C 10.98 .745 10.901 .027 10.019 .017 C 6.636 -.023 3.253 0 0 0 " fill="#061689"/>
<path transform="matrix(2.7777777,0,0,-2.7777777,344.42555,526.4486)" d="M 0 0 L -12.072 0 C -12.253 16.245 -12.565 32.3 -12.133 48.277 C -11.095 48.651 -7 48.701 -5.752 48.406 C -4.096 44.266 -3.201 39.811 -1.54 35.643 C .547 30.403 .472 25.008 .417 19.558 C .369 14.847 .406 10.135 .407 5.423 C .407 3.699 .477 1.972 0 0 " fill="#061689"/>
<path transform="matrix(2.7777777,0,0,-2.7777777,395.90916,525.1519)" d="M 0 0 C 4.927 16.024 9.86 32.072 14.777 48.063 L 21.426 48.063 C 21.773 47.621 21.657 47.162 21.658 46.736 C 21.667 40.992 21.72 35.248 21.636 29.506 C 21.604 27.304 20.51 25.312 19.86 23.243 C 18.095 17.619 16.191 12.039 14.338 6.442 C 13.664 4.407 12.984 2.374 12.297 .344 C 12.007 -.512 11.258 -.64 10.516 -.646 C 7.533 -.669 4.551 -.65 1.568 -.661 C 1.064 -.663 .637 -.525 0 0 " fill="#061689"/>
<path transform="matrix(2.7777777,0,0,-2.7777777,602.49557,426.97749)" d="M 0 0 L -16.259 0 L -16.259 8.854 C -15.936 9.299 -15.368 9.243 -14.82 9.243 C -10.733 9.244 -6.64 9.094 -2.562 9.288 C 1.447 9.478 5.439 9.243 9.439 9.236 C 9.723 9.236 10.005 9.162 10.339 9.115 C 11.059 7.032 10.643 4.925 10.727 2.856 C 10.778 1.612 10.732 .336 11.235 -.81 C 12.553 -3.805 15.572 -5.131 19.136 -4.394 C 19.593 -4.3 20.063 -4.273 20.454 -4.225 C 22.398 -6.471 23.559 -8.534 23.52 -9.625 C 17.513 -15.499 2.853 -12.158 0 0 " fill="#061689"/>
</g>
</g>
</g>
</svg>
