<?xml version="1.0" encoding="UTF-8"?>
<svg version="1.1" xmlns="http://www.w3.org/2000/svg" width="512" height="512">
<path d="M0 0 C9.92013645 0.61704198 19.1143435 5.0674685 26.13671875 12.08984375 C30.15020998 17.03542993 32.63634736 21.10792688 32.54443359 27.73852539 C31.05696051 36.31688061 23.94145782 44.62627949 19.07421875 51.65234375 C18.4179248 52.60850586 17.76163086 53.56466797 17.08544922 54.54980469 C13.0661834 60.38031098 8.94858594 66.12909705 4.76171875 71.83984375 C-14.70735545 97.05980225 -14.70735545 97.05980225 -28.86328125 125.08984375 C-28.44820313 124.63996094 -28.033125 124.19007813 -27.60546875 123.7265625 C-21.25846375 117.10071418 -14.17225747 111.59681945 -6.86328125 106.08984375 C-6.28771484 105.65349609 -5.71214844 105.21714844 -5.11914062 104.76757812 C11.5180942 92.23736356 30.79359362 79.58891212 52.3984375 80.5078125 C60.6753017 81.79647788 67.95324263 85.52165885 73.0234375 92.296875 C75.84277961 96.83749967 77.30331566 100.66618892 77.13671875 106.08984375 C76.00878906 106.17621094 74.88085938 106.26257813 73.71875 106.3515625 C51.31639096 108.265017 30.50261374 113.74834549 10.99316406 125.13671875 C9.13671875 126.08984375 9.13671875 126.08984375 7.13671875 126.08984375 C12.68666551 145.2687737 21.0504686 162.89560115 34.13671875 178.08984375 C34.91402344 179.02828125 35.69132813 179.96671875 36.4921875 180.93359375 C44.02922153 189.68786493 53.080028 197.35394509 63.13671875 203.08984375 C60.55721381 208.98585505 55.9303501 211.91623058 50.10546875 214.36328125 C36.31223155 218.99386802 24.1201783 217.56214484 11.01171875 211.40234375 C-8.52463078 201.0371544 -22.58500958 182.80990027 -31.86328125 163.08984375 C-31.86328125 162.42984375 -31.86328125 161.76984375 -31.86328125 161.08984375 C-46.31940598 174.29310434 -50.92286368 196.78673638 -54.86328125 215.08984375 C-67.25577103 213.82049686 -75.3794852 208.19409653 -83.86328125 199.08984375 C-90.24103389 191.10186643 -95.73119377 182.04502705 -95.203125 171.44140625 C-93.34388589 158.57632641 -88.13380614 146.85533397 -82.86328125 135.08984375 C-82.55406738 134.38633789 -82.24485352 133.68283203 -81.92626953 132.95800781 C-76.56420486 120.79548795 -70.0458893 109.34798643 -63.42675781 97.83349609 C-61.59684055 94.62228275 -59.82055064 91.38427585 -58.05126953 88.1394043 C-52.07200716 77.19462626 -45.51031392 66.63860544 -38.86328125 56.08984375 C-38.33814941 55.25066406 -37.81301758 54.41148437 -37.27197266 53.546875 C-29.40932192 40.9822179 -21.27095144 28.60983354 -13.05078125 16.27734375 C-12.5524881 15.52940552 -12.05419495 14.78146729 -11.540802 14.01086426 C-10.12260812 11.88373449 -8.70242788 9.75794948 -7.28125 7.6328125 C-6.84962555 6.98598007 -6.4180011 6.33914764 -5.97329712 5.67271423 C-2.24387588 0.10819527 -2.24387588 0.10819527 0 0 Z " fill="#573C81" transform="translate(155.86328125,130.91015625)"/>
<path d="M0 0 C9.21410521 0.14808383 18.79719071 5.51307155 25.19921875 11.9609375 C29.15040758 16.60273526 29.95963469 19.21275932 29.5625 25.3125 C28.65042139 27.91572437 27.72591967 30.27380274 26.5625 32.75 C26.27632813 33.38615234 25.99015625 34.02230469 25.6953125 34.67773438 C24.99597155 36.22794015 24.28086143 37.77101611 23.5625 39.3125 C23.8925 39.6425 24.2225 39.9725 24.5625 40.3125 C25.20574219 39.63445312 25.84898437 38.95640625 26.51171875 38.2578125 C40.71936932 23.62454044 61.29497062 5.80612963 82.55810547 4.77563477 C95.60020733 4.61387943 105.81916659 8.66341788 115.5625 17.3125 C123.12341239 24.8605098 128.52623845 34.53379084 129.1875 45.375 C128.41687029 56.64769978 121.28476028 66.34803989 115.64916992 75.75610352 C101.44592483 99.48559788 90.93369632 122.27389948 89.5625 150.3125 C76.27698058 151.43839148 64.31179968 144.67089973 54.27734375 136.4375 C47.8700508 130.49728074 43.28080141 122.91851792 42.32421875 114.12109375 C41.81154975 97.74266825 52.87684141 84.96362935 62.02172852 72.37426758 C68.24130753 63.71009796 73.72373192 55.35515823 72.5625 44.3125 C71.69603917 41.31094249 71.69603917 41.31094249 69.5625 39.3125 C65.26690009 37.85199603 62.29532684 38.15356993 58.1875 39.8125 C53.11018453 42.32534088 48.86864775 45.66423593 44.5625 49.3125 C43.82 49.9209375 43.0775 50.529375 42.3125 51.15625 C15.89300299 73.53943497 2.76828181 106.47057767 -4.4375 139.3125 C-17.77858526 138.20936117 -26.38095982 132.23217922 -35.2578125 122.26953125 C-36.78694989 120.34466233 -38.13319121 118.39531809 -39.4375 116.3125 C-39.85 115.68472656 -40.2625 115.05695313 -40.6875 114.41015625 C-46.43655216 104.00996119 -44.07700146 90.99788264 -41 80.125 C-36.28263076 64.52973097 -17.04789261 1.54980842 0 0 Z " fill="#573C81" transform="translate(328.4375,206.6875)"/>
<path d="M0 0 C1.65940865 -0.01052147 1.65940865 -0.01052147 3.3523407 -0.02125549 C6.90160238 -0.03865803 10.45069723 -0.04510749 14 -0.046875 C15.21241364 -0.04754974 16.42482727 -0.04822449 17.67398071 -0.04891968 C35.32449749 -0.03329419 52.5524478 0.32884969 70 3.203125 C71.09022461 3.37473145 72.18044922 3.54633789 73.30371094 3.72314453 C123.73660899 11.8106213 175.76118 29.32137794 215 63.203125 C215.76828125 63.86183594 216.5365625 64.52054687 217.328125 65.19921875 C241.96489261 86.85573221 261.30490985 111.74516182 269 144.203125 C269.17660156 144.89374023 269.35320312 145.58435547 269.53515625 146.29589844 C271.3359096 154.04235349 271.39778754 161.7923947 271.375 169.703125 C271.37418427 170.76660156 271.37418427 170.76660156 271.37335205 171.8515625 C271.33385203 183.05566428 270.53069988 193.51160688 267 204.203125 C266.67854004 205.21318604 266.67854004 205.21318604 266.35058594 206.24365234 C260.1394912 225.36062442 249.77048287 242.29885314 236.078125 256.97265625 C234.16973109 259.02095122 232.36375274 261.12348097 230.5625 263.265625 C217.25012421 278.42358016 198.60459405 291.41584625 181 301.203125 C180.34 301.203125 179.68 301.203125 179 301.203125 C179 300.543125 179 299.883125 179 299.203125 C181.07797637 297.76825957 183.15460868 296.44515069 185.3125 295.140625 C217.31601909 275.14954071 242.50597253 244.08430166 252 207.33203125 C259.44283856 174.08973788 252.09222571 141.8128525 234.31591797 113.203125 C223.06785863 96.10774427 207.68859147 80.94545924 191 69.203125 C190.45118164 68.80996094 189.90236328 68.41679687 189.33691406 68.01171875 C151.45272766 41.00431022 105.7919561 26.32734999 60 20.203125 C59.15453613 20.08598145 58.30907227 19.96883789 57.43798828 19.84814453 C29.26003067 16.13921328 -1.8657898 16.17137036 -30 20.203125 C-31.09666992 20.35910156 -32.19333984 20.51507813 -33.32324219 20.67578125 C-85.53512571 28.37706972 -144.95304404 47.30640319 -182 87.203125 C-187 92.203125 -187 92.203125 -188.4765625 93.5390625 C-207.26788411 111.08356657 -219.56061194 137.16497632 -224 162.203125 C-224.13019531 162.91597656 -224.26039063 163.62882813 -224.39453125 164.36328125 C-228.80592267 194.89010991 -219.69005506 226.13893519 -202.0625 251.078125 C-200.73193995 252.80490816 -199.37628018 254.51255616 -198 256.203125 C-197.58637207 256.71536621 -197.17274414 257.22760742 -196.74658203 257.75537109 C-184.14403382 273.28638868 -170.06938357 286.00942592 -153.1328125 296.64453125 C-152.42898437 297.15886719 -151.72515625 297.67320312 -151 298.203125 C-151 298.863125 -151 299.523125 -151 300.203125 C-155.7442636 298.60342147 -159.50192944 295.9886506 -163.5625 293.140625 C-164.26922852 292.64820313 -164.97595703 292.15578125 -165.70410156 291.6484375 C-167.80871254 290.17492425 -169.90587723 288.69149714 -172 287.203125 C-172.5676709 286.80109863 -173.1353418 286.39907227 -173.72021484 285.98486328 C-181.10483484 280.71865026 -187.90842827 274.94543545 -194.45263672 268.68310547 C-195.49631659 267.68487458 -196.54495364 266.69180431 -197.59814453 265.70361328 C-215.61582916 248.75821646 -229.8213053 228.02798597 -237 204.203125 C-237.20882812 203.52330566 -237.41765625 202.84348633 -237.6328125 202.14306641 C-246.40103701 172.19652747 -241.56385479 139.18681106 -226.796875 112.03125 C-219.95216603 100.0376136 -211.49560769 89.20635951 -202 79.203125 C-201.54173828 78.71231445 -201.08347656 78.22150391 -200.61132812 77.71582031 C-191.88077474 68.41134609 -182.3377335 60.65613858 -172 53.203125 C-171.41089844 52.76935547 -170.82179688 52.33558594 -170.21484375 51.88867188 C-122.82507109 17.19847866 -58.20171969 0.24829624 0 0 Z " fill="#573C81" transform="translate(241,90.796875)"/>
<path d="M0 0 C12.74731738 0.82240757 22.28146821 5.65391159 30.875 15.0625 C33.23514902 17.90222268 35.22479327 20.31776802 36 24 C34.86477174 34.48544695 27.62671939 43.31483234 21.75 51.75 C20.41485934 53.68845419 19.08022459 55.62725692 17.74609375 57.56640625 C17.10269043 58.49855957 16.45928711 59.43071289 15.79638672 60.39111328 C-0.40690549 83.92310302 -15.72946599 108.16085155 -28 134 C-28.5269043 135.08571289 -28.5269043 135.08571289 -29.06445312 136.19335938 C-42.66943191 164.33910914 -50.69145411 193.85185846 -53 225 C-62.45865876 225.28907881 -69.59598961 222.12241854 -76.8359375 216.09765625 C-86.9287176 206.3145824 -92.88035346 193.26637942 -93.3125 179.1875 C-93.03589573 156.50595008 -80.84545901 134.74427243 -71 115 C-70.54995605 114.09588379 -70.09991211 113.19176758 -69.63623047 112.26025391 C-52.69126592 78.47882364 -31.4961201 47.07317581 -10.49707031 15.72949219 C-6.98898419 10.49236973 -3.49397694 5.24654288 0 0 Z " fill="#573C81" transform="translate(310,131)"/>
<path d="M0 0 C2.70972092 2.21704439 3.92132919 3.99733158 4.625 7.4375 C3.78620482 12.28387215 0.68514376 14.5638939 -2.9375 17.6875 C-2.2775 18.3475 -1.6175 19.0075 -0.9375 19.6875 C-0.45947352 23.27269858 -0.63185347 25.15261857 -2.4375 28.3125 C-7.70342015 33.31512414 -13.38009962 35.3291935 -20.59765625 35.78515625 C-24.06261505 35.64054194 -26.19961388 34.79356625 -28.9375 32.6875 C-29.97824952 30.18233301 -30.21057783 28.48659823 -29.32495117 25.89501953 C-28.36976205 23.82384376 -27.33254018 21.81998351 -26.25 19.8125 C-25.89744141 19.13058594 -25.54488281 18.44867188 -25.18164062 17.74609375 C-23.43962574 14.40218949 -21.61632658 11.11887624 -19.71484375 7.86328125 C-18.10763938 4.99150728 -17.32939179 2.92060723 -16.9375 -0.3125 C-11.31388613 -1.76375519 -5.37125069 -2.39992052 0 0 Z M-9.9375 4.6875 C-11.5875 7.9875 -13.2375 11.2875 -14.9375 14.6875 C-9.65851867 13.6477191 -9.65851867 13.6477191 -4.875 11.375 C-3.68134573 9.61289741 -3.68134573 9.61289741 -4.25 7 C-4.5903125 5.8553125 -4.5903125 5.8553125 -4.9375 4.6875 C-6.5875 4.6875 -8.2375 4.6875 -9.9375 4.6875 Z M-18.75 21.375 C-20.01225375 23.8330731 -20.55861184 25.95950523 -20.9375 28.6875 C-16.38012737 28.24929109 -13.36096555 27.83708831 -9.9375 24.6875 C-10.2675 23.0375 -10.5975 21.3875 -10.9375 19.6875 C-15.25094791 19.19105845 -15.25094791 19.19105845 -18.75 21.375 Z " fill="#573C81" transform="translate(286.9375,375.3125)"/>
<path d="M0 0 C2.86724686 0.57344937 3.8614515 0.8614515 6 3 C6.99 2.34 7.98 1.68 9 1 C11.6875 1.375 11.6875 1.375 14 2 C14.33 2.99 14.66 3.98 15 5 C15.886875 4.34 16.77375 3.68 17.6875 3 C22.435882 0.13305238 22.435882 0.13305238 26 1 C28 2.9375 28 2.9375 29 6 C28.55412981 8.27029823 27.8123558 10.2858139 26.97265625 12.44140625 C25.89378828 15.27939228 25.09391102 18.12937747 24.3125 21.0625 C24.06113281 22.00222656 23.80976563 22.94195312 23.55078125 23.91015625 C23.36902344 24.59980469 23.18726563 25.28945313 23 26 C20.38670046 25.45353364 19.18504907 25.17228706 17.1875 23.3125 C15.50930262 20.04443142 15.98559479 18.51660473 17 15 C18.2222441 12.2696644 19.567346 9.62542175 21 7 C15.69252087 11.71775923 12.55103765 17.03584097 11 24 C9.125 23.6875 9.125 23.6875 7 23 C5 20 5 20 5.1875 17.25 C6.10620045 13.5751982 7.4185768 10.43787652 9 7 C3.38428041 11.49257567 1.4756046 17.39487624 -1 24 C-4.875 22.25 -4.875 22.25 -6 20 C-6.20590199 12.35221187 -3.76486018 6.52946231 0 0 Z " fill="#573C81" transform="translate(173,386)"/>
<path d="M0 0 C1.4606285 2.64738916 2 3.89448334 2 7 C-3.05002222 8.03590199 -7.87416389 8.10251672 -13 8 C-13.99 10.31 -14.98 12.62 -16 15 C-14.576875 14.938125 -14.576875 14.938125 -13.125 14.875 C-10 15 -10 15 -8 17 C-8 18.65 -8 20.3 -8 22 C-11.96 22.33 -15.92 22.66 -20 23 C-23.25637322 29.89769916 -23.25637322 29.89769916 -26 37 C-30.75 36.25 -30.75 36.25 -33 34 C-32.92887193 27.26061532 -29.71010557 22.14833847 -26.5 16.375 C-25.48371751 14.53186803 -24.47308374 12.68560755 -23.46875 10.8359375 C-23.01951172 10.02688965 -22.57027344 9.2178418 -22.10742188 8.38427734 C-20.96099941 5.9160318 -20.42156285 3.68002034 -20 1 C-13.30324864 -0.03026944 -6.7685324 -0.10152799 0 0 Z " fill="#573C81" transform="translate(155,374)"/>
<path d="M0 0 C4 2 4 2 4.9453125 4.28515625 C5.01791906 7.88955358 3.85727079 9.44750578 1.875 12.4375 C-3.20063077 20.64987058 -6.63925242 29.41686278 -8 39 C-10.62187494 37.95125002 -11.79371361 37.35068687 -13.25 34.875 C-13.4975 34.25625 -13.745 33.6375 -14 33 C-14.556875 33.66 -15.11375 34.32 -15.6875 35 C-18 37 -18 37 -20.5625 37.4375 C-23 37 -23 37 -24.75 35.8125 C-26.39920672 33.42115025 -26.8643223 31.91707048 -27 29 C-24.69542221 22.37433885 -19.69919684 17.64068828 -13.8125 14.0625 C-11 13 -11 13 -7 13 C-4.69 8.71 -2.38 4.42 0 0 Z M-16 23 C-18.1519437 26.22791555 -18.20086443 27.28400809 -18 31 C-13.99027798 27.32442148 -11.54664585 23.81033104 -9 19 C-12.17366427 19 -13.6795544 20.9696101 -16 23 Z " fill="#573C81" transform="translate(373,373)"/>
<path d="M0 0 C1.32 0.33 2.64 0.66 4 1 C5.38766322 7.05525768 4.49118146 10.32010626 2 16 C5.34169478 11.1334542 8.52303815 6.36675067 11 1 C12.9375 1.6875 12.9375 1.6875 15 3 C17.15666865 9.70190581 13.64542362 15.78289724 10.60546875 21.7265625 C7.65658341 26.87738597 4.67360544 31.30006236 0 35 C-3.375 35.375 -3.375 35.375 -6 35 C-6.66 33.68 -7.32 32.36 -8 31 C-7.16855469 30.51080078 -7.16855469 30.51080078 -6.3203125 30.01171875 C-5.59585938 29.57472656 -4.87140625 29.13773437 -4.125 28.6875 C-3.40570313 28.25824219 -2.68640625 27.82898438 -1.9453125 27.38671875 C0.26846333 25.98247625 0.26846333 25.98247625 2 23 C1.443125 23.268125 0.88625 23.53625 0.3125 23.8125 C-2 24 -2 24 -4.8125 22 C-7 19 -7 19 -7.1875 15.9375 C-5.92766732 10.26825293 -2.72415928 5.07343425 0 0 Z " fill="#573C81" transform="translate(228,386)"/>
<path d="M0 0 C2.33453316 8.30056234 -0.86644017 16.94883082 -3 25 C-4.32 24.67 -5.64 24.34 -7 24 C-7.33 22.35 -7.66 20.7 -8 19 C-8.721875 19.66 -9.44375 20.32 -10.1875 21 C-13 23 -13 23 -15.625 23.5 C-18 23 -18 23 -19.8125 21.375 C-21.37144523 18.25710955 -21.48400315 16.45716537 -21 13 C-16.75288817 4.8455453 -9.43259481 -2.14377155 0 0 Z M-7.6640625 6.609375 C-8.31117188 7.31578125 -8.95828125 8.0221875 -9.625 8.75 C-10.27726563 9.44609375 -10.92953125 10.1421875 -11.6015625 10.859375 C-13.26212773 12.89595844 -13.26212773 12.89595844 -12.7109375 15.265625 C-12.47632813 15.83796875 -12.24171875 16.4103125 -12 17 C-11.01287122 15.75627811 -10.03560095 14.50472782 -9.0625 13.25 C-8.51722656 12.55390625 -7.97195312 11.8578125 -7.41015625 11.140625 C-6.02574346 9.03907872 -5.43713013 7.45678201 -5 5 C-6.26602886 4.88413391 -6.26602886 4.88413391 -7.6640625 6.609375 Z " fill="#573C81" transform="translate(166,387)"/>
<path d="M0 0 C2.8992226 0.46761655 3.86675182 0.86675182 6 3 C6.99 2.34 7.98 1.68 9 1 C11.5 0.5625 11.5 0.5625 14 1 C16.09961226 3.44954763 17.02801306 4.99152971 16.9375 8.25 C15.82031945 11.52706296 14.4341435 14.62934432 12.98828125 17.7734375 C11.79618892 20.45917912 10.8637147 23.19292724 10 26 C6.83884224 24.63016497 6.0072908 24.0109362 4 21 C4.24626368 15.70533092 6.51267699 11.55816403 9 7 C3.38428041 11.49257567 1.4756046 17.39487624 -1 24 C-4.875 22.125 -4.875 22.125 -6 21 C-6.85259568 13.46873812 -4.27643004 7.71399598 -1 1 C-0.67 0.67 -0.34 0.34 0 0 Z " fill="#573C81" transform="translate(331,386)"/>
<path d="M0 0 C1.91009239 8.91376449 -0.55242812 16.43875073 -3 25 C-6.78125 24.2578125 -6.78125 24.2578125 -8.75 21.9375 C-9.1625 21.298125 -9.575 20.65875 -10 20 C-10.391875 20.495 -10.78375 20.99 -11.1875 21.5 C-13 23 -13 23 -15.5 23.375 C-18 23 -18 23 -19.8125 22 C-21.30840173 19.48058656 -21.77721285 17.25388556 -21.6796875 14.328125 C-19.89341073 8.20961376 -14.24342918 3.31433225 -8.90625 0.1875 C-5.45980153 -1.22072626 -3.55296721 -0.93053903 0 0 Z M-6 5 C-8.90802461 7.21928194 -10.95312762 8.92969143 -13 12 C-13.16713569 14.62531524 -13.16713569 14.62531524 -13 17 C-9.7373124 13.91367389 -6.97764782 11.06516496 -5 7 C-5.33 6.34 -5.66 5.68 -6 5 Z " fill="#573C81" transform="translate(324,387)"/>
<path d="M0 0 C2.475 0.99 2.475 0.99 5 2 C4.50881965 7.6815638 2.91623177 11.60251282 0.1875 16.5625 C-3.66186024 23.85566289 -6.08876058 30.95267613 -8 39 C-11.875 37.25 -11.875 37.25 -13 35 C-13.43686015 28.83762428 -12.50578599 24.72110441 -9.875 19.1875 C-9.56167725 18.50042969 -9.24835449 17.81335938 -8.92553711 17.10546875 C-6.22074183 11.25814726 -3.22565927 5.57696402 0 0 Z " fill="#573C81" transform="translate(224,373)"/>
<path d="M0 0 C2.75 0.9375 2.75 0.9375 4.75 2.9375 C4.875 6.0625 4.875 6.0625 4.75 8.9375 C2.58125748 8.43146008 0.75032373 7.93766187 -1.25 6.9375 C-1.02183594 7.52917969 -0.79367187 8.12085938 -0.55859375 8.73046875 C2.49416624 17.12213635 2.49416624 17.12213635 0.75 20.9375 C-1.66367447 23.41822099 -3.3838147 24.72095368 -6.75 25.5625 C-10.64065797 24.58983551 -11.92142834 22.13096971 -14.25 18.9375 C-13.59 17.2875 -12.93 15.6375 -12.25 13.9375 C-11.59 13.9375 -10.93 13.9375 -10.25 13.9375 C-9.775625 14.576875 -9.30125 15.21625 -8.8125 15.875 C-7.3408635 18.22122963 -7.3408635 18.22122963 -4.25 18.9375 C-4.6109375 18.42960937 -4.971875 17.92171875 -5.34375 17.3984375 C-7.51590657 14.17640525 -9.11174659 11.57849306 -9.9375 7.75 C-8.67633957 2.59070731 -5.28359527 -0.1016076 0 0 Z " fill="#573C81" transform="translate(382.25,386.0625)"/>
<path d="M0 0 C2.86724686 0.57344937 3.8614515 0.8614515 6 3 C6.99 2.34 7.98 1.68 9 1 C11.6875 1.375 11.6875 1.375 14 2 C14.33 3.32 14.66 4.64 15 6 C13.7625 6.37125 12.525 6.7425 11.25 7.125 C6.82848959 8.80938492 5.15307388 10.69385224 3 15 C1.87961999 17.96827951 0.89291672 20.95596573 0 24 C-3.16115776 22.63016497 -3.9927092 22.0109362 -6 19 C-5.6819948 12.2240431 -2.98198089 5.99291305 0 0 Z " fill="#573C81" transform="translate(292,386)"/>
<path d="M0 0 C2.50635354 0.33418047 3.69983063 0.67104726 5.42578125 2.5625 C6.33271635 6.41234693 4.66093525 9.48666844 3.1875 13 C2.61675219 14.4159676 2.04768722 15.83261491 1.48046875 17.25 C1.22160889 17.87390625 0.96274902 18.4978125 0.69604492 19.140625 C-0.02684172 21.07170346 -0.53666365 22.99230171 -1 25 C-2.875 24.8125 -2.875 24.8125 -5 24 C-6.62462128 21.6369145 -7.06788855 19.8825512 -6.84765625 17.01953125 C-5.6946359 10.81518367 -3.00888362 5.50097425 0 0 Z " fill="#573C81" transform="translate(207,386)"/>
<path d="M0 0 C1.1446875 0.3403125 1.1446875 0.3403125 2.3125 0.6875 C1.4375 6.5625 1.4375 6.5625 0.3125 7.6875 C-1.35367115 7.72813832 -3.02138095 7.730221 -4.6875 7.6875 C-5.375 5.375 -5.375 5.375 -5.6875 2.6875 C-4.0011022 -0.12316299 -3.27764429 -0.38112143 0 0 Z " fill="#573C81" transform="translate(215.6875,375.3125)"/>
</svg>
