<svg version="1.2" xmlns="http://www.w3.org/2000/svg" viewBox="0 0 1540 418" width="1540" height="418">
	<title>ssys_logo_symbol_typemark_reg_rgb_svg-svg</title>
	<style>
		.s0 { fill: #0c9cd8 } 
		.s1 { fill: #003a5d } 
		.s2 { fill: #80d0ee } 
		.s3 { fill: #33b4e4 } 
		.s4 { fill: #4cbde7 } 
		.s5 { fill: #00a1dd } 
		.s6 { opacity: .5;mix-blend-mode: multiply;fill: #000000 } 
	</style>
	<g id="Layer">
		<g id="Layer_1">
			<path id="Layer" class="s0" d="m334.6 139.3l-83.7-69.6-83.6-69.7-83.7 69.7-83.6 69.6 83.6 69.7-83.6 69.7 83.6 69.6 83.7 69.7 83.6-69.7 83.7-69.6-83.7-69.7 83.7-69.7z"/>
			<path id="Layer" class="s1" d="m167.3 278.7l-83.7-69.7-83.6 69.7h167.3z"/>
			<path id="Layer" class="s1" d="m167.3 139.3l83.6 69.7 83.7-69.7h-167.3z"/>
			<path id="Layer" class="s2" d="m250.9 69.7l-83.6-69.7v139.3h167.3l-83.7-69.6z"/>
			<path id="Layer" class="s0" d="m167.3 139.3z"/>
			<path id="Layer" class="s0" d="m167.3 139.3z"/>
			<path id="Layer" class="s0" d="m167.3 139.3z"/>
			<path id="Layer" class="s0" d="m167.3 139.3z"/>
			<path id="Layer" class="s0" d="m167.3 278.7z"/>
			<path id="Layer" class="s0" d="m167.3 278.7z"/>
			<path id="Layer" class="s0" d="m167.3 278.7z"/>
			<path id="Layer" class="s3" d="m167.3 278.7v139.3l83.6-69.7 83.7-69.6h-167.3z"/>
			<path id="Layer" class="s4" d="m167.3 278.7h-167.3l83.6 69.6 83.7 69.7v-139.3z"/>
			<path id="Layer" class="s0" d="m167.3 278.7z"/>
			<path id="Layer" class="s3" d="m167.3 139.3h-167.3l83.6 69.7 83.7 69.7v-139.4z"/>
			<path id="Layer" class="s5" d="m250.9 209l-83.6-69.7v139.4h167.3l-83.7-69.7z"/>
			<path id="Layer" class="s4" d="m167.3 0l-83.7 69.7-83.6 69.6h167.3v-139.3z"/>
			<path id="Layer" class="s6" d="m183 139.3h-15.7l18.6 15.5 11.1-1.1 137.6-14.4h-151.6z"/>
			<path id="Layer" class="s6" d="m167.3 278.7l-18.6-15.5-11 1.1-137.7 14.4h151.6 15.7z"/>
			<path id="Layer" class="s6" d="m250.9 209l-62.7-69.7h-20.9l83.6 69.7z"/>
			<path id="Layer" class="s6" d="m83.6 209l62.8 69.7h20.9l-83.7-69.7z"/>
			<path id="Layer" class="s1" d="m613.8 83.6l-41.6 44.8v128.7q-0.2 3 0.1 6 0.4 3 1.3 5.8 0.9 2.9 2.3 5.5 1.4 2.7 3.4 5 10.9 11.3 40.6 10.2l19.9-0.7v-31.4h-4.2-4.1q-12.8 0-15.3-2.4c-1.7-1.6-2.5-5.8-2.5-12.3v-84.5h26.1v-29.9h-26.1z"/>
			<path id="Layer" class="s1" d="m544.2 204.3q-1.9-1.4-3.9-2.6-2-1.2-4-2.2-2.1-1.1-4.3-2-2.1-0.9-4.3-1.6-2.4-0.8-4.7-1.6-2.4-0.7-4.8-1.4-2.4-0.7-4.8-1.3-2.4-0.6-4.8-1.2c-6.3-1.4-12.5-2.8-18.6-4.1q-2.1-0.4-4.1-0.9-2.1-0.5-4.1-1-2-0.6-4-1.1-2-0.6-4-1.3-1.6-0.5-3.1-1.1-1.6-0.6-3-1.4-1.5-0.8-2.9-1.7-1.4-1-2.6-2-1.1-0.9-2-2-0.8-1.2-1.4-2.4-0.5-1.3-0.8-2.7-0.3-1.4-0.3-2.8 0-1.1 0.1-2.1 0.2-1.1 0.5-2.2 0.3-1 0.8-2 0.5-0.9 1.1-1.8 0.7-0.8 1.4-1.4 0.7-0.7 1.5-1.3 0.7-0.6 1.6-1.1 0.8-0.5 1.7-0.8 1-0.5 1.9-0.8 1-0.3 2-0.6 1-0.2 2.1-0.4 1-0.2 2-0.3 1-0.1 2.1-0.2 1-0.1 2-0.2 1 0 2.1-0.1 1 0 2 0 2.7-0.1 5.4 0.2 2.7 0.3 5.3 0.9 2.7 0.5 5.2 1.4 2.5 0.9 5 2.1 2.3 1.4 4.1 3.3 1.9 1.9 3.2 4.3 1.2 2.3 1.9 4.9 0.6 2.6 0.5 5.2h42.5q-0.1-3.3-0.7-6.6-0.6-3.3-1.5-6.5-1-3.2-2.4-6.3-1.3-3-3-5.9-1.6-2.5-3.4-4.7-1.8-2.2-3.9-4.3-2-2-4.3-3.8-2.2-1.8-4.7-3.3-2.6-1.6-5.2-2.9-2.7-1.3-5.5-2.4-2.8-1.1-5.7-1.9-2.9-0.8-5.8-1.4-3.2-0.6-6.4-1.1-3.2-0.5-6.4-0.8-3.2-0.3-6.5-0.5-3.2-0.2-6.4-0.2-3.3 0-6.5 0.2-3.3 0.1-6.5 0.4-3.2 0.3-6.4 0.8-3.3 0.4-6.5 1-3 0.6-5.9 1.4-2.9 0.7-5.8 1.8-2.8 1-5.6 2.3-2.7 1.3-5.4 2.8-2.5 1.5-4.8 3.2-2.2 1.8-4.3 3.8-2 2.1-3.8 4.4-1.8 2.2-3.3 4.7-1.6 3-2.8 6.2-1.3 3.1-2 6.5-0.8 3.3-1.2 6.7-0.3 3.3-0.1 6.7-0.1 2.4 0.1 4.8 0.3 2.4 0.8 4.7 0.6 2.3 1.4 4.5 0.9 2.2 2.1 4.3 1.1 1.9 2.3 3.6 1.3 1.7 2.8 3.3 1.5 1.6 3.1 2.9 1.6 1.4 3.4 2.6 1.9 1.3 3.9 2.5 2 1.1 4.1 2.1 2.1 1.1 4.2 1.9 2.2 0.9 4.4 1.6c6.1 2 12.5 3.7 19 5.2q4.8 0.9 9.5 2 4.7 1.1 9.4 2.4 4.6 1.3 9.3 2.7 4.6 1.5 9.2 3.1 13.4 5.1 13.4 15.3 0 1.3-0.1 2.6-0.2 1.3-0.5 2.6-0.4 1.3-1 2.5-0.5 1.2-1.3 2.3-0.7 1-1.5 1.9-0.8 0.9-1.7 1.7-0.9 0.8-1.8 1.5-1 0.7-2.1 1.3-1.1 0.6-2.2 1.1-1.2 0.6-2.4 1-1.2 0.4-2.4 0.8-1.2 0.3-2.4 0.6-1.3 0.3-2.5 0.5-1.2 0.2-2.5 0.3-1.2 0.1-2.5 0.2-1.2 0.1-2.5 0.1-1.6 0-3.2-0.1-1.6-0.1-3.2-0.3-1.6-0.2-3.2-0.5-1.6-0.3-3.1-0.7-1.5-0.3-2.9-0.8-1.4-0.5-2.8-1.2-1.4-0.6-2.7-1.3-1.3-0.8-2.5-1.6-1.2-0.9-2.3-1.8-1.1-1-2-2.1-1-1.1-1.9-2.3-0.8-1.1-1.5-2.4-0.8-1.5-1.4-3-0.5-1.5-0.9-3.1-0.4-1.6-0.6-3.2-0.1-1.7-0.1-3.3h-42.1q0 3.6 0.5 7.2 0.5 3.6 1.4 7.1 0.9 3.4 2.3 6.8 1.4 3.3 3.2 6.5 1.6 2.6 3.6 5 1.9 2.5 4.1 4.7 2.2 2.2 4.6 4.1 2.5 1.9 5.1 3.6 2.8 1.7 5.7 3.2 2.9 1.5 5.9 2.7 3.1 1.2 6.2 2.1 3.1 0.9 6.3 1.6 3.4 0.7 6.9 1.2 3.4 0.6 6.9 0.9 3.5 0.4 7 0.5 3.5 0.2 7 0.2 3.4 0 6.8-0.1 3.4-0.2 6.9-0.5 3.4-0.4 6.8-0.9 3.3-0.5 6.7-1.2 3.2-0.6 6.3-1.5 3.1-0.9 6.1-2.1 2.9-1.1 5.8-2.6 2.9-1.4 5.6-3.2 2.6-1.6 5-3.6 2.4-2 4.5-4.2 2.1-2.3 4-4.7 1.8-2.5 3.4-5.2 1.7-3.1 2.9-6.4 1.3-3.3 2.1-6.8 0.8-3.4 1.2-6.9 0.3-3.6 0.2-7.1 0.1-2.5-0.1-5-0.3-2.5-0.8-4.9-0.6-2.5-1.5-4.8-0.8-2.4-2-4.6-1.1-1.9-2.4-3.7-1.4-1.7-2.9-3.4-1.5-1.6-3.2-3-1.6-1.5-3.5-2.7z"/>
			<path id="Layer" fill-rule="evenodd" class="s1" d="m894.9 277.9q0.7 0.7 1.5 1.3 0.8 0.6 1.6 1 0.9 0.5 1.8 0.9v6.2h-45.7q-0.4-1.1-0.8-2.3-0.4-1.1-0.7-2.2-0.4-1.2-0.7-2.3-0.2-1.2-0.5-2.4c-0.4-2.8-1.1-6.1-1.1-9.7q-2.2 2.4-4.6 4.6-2.4 2.2-4.9 4.2-2.5 2-5.2 3.8-2.7 1.9-5.5 3.5-3.5 2-7.2 3.5-3.8 1.5-7.7 2.5-3.9 1-7.9 1.5-4 0.5-8 0.4-4.9 0.2-9.8-0.5-4.9-0.7-9.5-2.3-4.7-1.6-8.9-4.1-4.3-2.4-8.1-5.6-3.6-3.3-6.4-7.4-2.8-4-4.7-8.6-1.9-4.6-2.7-9.4-0.7-4.9-0.5-9.9c0-19.6 7.9-34 23.3-42.8q4.3-2.1 8.8-3.9 4.6-1.7 9.2-3 4.7-1.3 9.5-2.1 4.8-0.9 9.6-1.3l14.4-1.8q2.1-0.2 4.3-0.5 2.1-0.3 4.2-0.8 2.1-0.4 4.2-1 2.1-0.6 4.1-1.3 1.9-0.6 3.6-1.8 1.7-1.1 2.9-2.7 1.2-1.6 1.9-3.6 0.6-1.9 0.6-3.9 0.2-2-0.1-4-0.4-2-1.3-3.8-1-1.8-2.4-3.3-1.4-1.5-3.1-2.5-2.4-1.1-4.9-1.8-2.5-0.8-5.1-1.3-2.6-0.5-5.2-0.6-2.6-0.2-5.2-0.1-2.9-0.2-5.8 0.2-2.9 0.4-5.6 1.4-2.7 1-5.2 2.5-2.4 1.6-4.5 3.6-1.2 1.6-2.2 3.4-0.9 1.7-1.7 3.6-0.7 1.8-1.2 3.8-0.5 1.9-0.7 3.9h-40.7q0.1-4.7 0.9-9.3 0.8-4.6 2.3-9 1.5-4.4 3.6-8.6 2.1-4.1 4.9-7.9 16.7-21.2 57.3-21.2 6.1-0.1 12.2 0.5 6.1 0.6 12 1.9 6 1.3 11.7 3.3 5.8 2 11.2 4.7 20.6 10.5 20.6 39.5c0 5.1 0 84.9 0 92.2q0 1.4 0.1 2.9 0.1 1.4 0.5 2.9 0.3 1.4 0.8 2.7 0.4 1.4 1.1 2.7 0.6 0.8 1.3 1.5zm-45.7-68.5q-1 0.6-2 1.2-1 0.5-2 1-1 0.5-2.1 1-1 0.4-2.1 0.8-1.3 0.5-2.7 0.9-1.4 0.4-2.8 0.8-1.4 0.4-2.9 0.7-1.4 0.3-2.8 0.5l-9.6 1.8q-2.5 0.3-5 0.8-2.5 0.5-4.9 1.3-2.4 0.7-4.8 1.6-2.3 1-4.6 2.1-2.4 1.3-4.3 3.2-1.9 1.9-3.2 4.2-1.3 2.4-2 5-0.6 2.7-0.4 5.4-0.3 2.1 0 4.3 0.3 2.1 1.1 4.1 0.7 2.1 1.9 3.9 1.2 1.8 2.8 3.2 1.6 1.2 3.3 2.2 1.8 0.9 3.6 1.5 1.9 0.6 3.9 0.9 2 0.3 3.9 0.2 3.4 0 6.8-0.5 3.3-0.5 6.5-1.5 3.3-1 6.3-2.5 3-1.5 5.8-3.4c7.7-5.4 12-15.1 12-29.1z"/>
			<path id="Layer" class="s1" d="m971.4 257.8h-2.9q-12.8 0-15.2-2.5-0.9-1.3-1.5-2.8-0.6-1.5-0.9-3.1-0.3-1.5-0.4-3.1 0-1.6 0.2-3.2v-84.8h26.1v-29.9h-26.1v-44.8l-39.7 44.8v128.7q-0.3 3 0.1 6 0.3 3 1.2 5.8 0.9 2.9 2.4 5.5 1.4 2.7 3.4 5c6.5 6.8 16.6 10.2 33 10.3q4.4 0.3 8.7 0.3 4.4 0 8.8-0.2 4.3-0.2 8.7-0.6 4.3-0.5 8.7-1.1h0.3q-3-3.1-5.4-6.7-2.5-3.5-4.4-7.3-1.8-3.9-3.1-8-1.3-4.1-2-8.3z"/>
			<path id="Layer" fill-rule="evenodd" class="s1" d="m1132 278q0.7 0.7 1.5 1.4 0.7 0.6 1.6 1.2 0.8 0.5 1.8 0.9v6.2h-45.7q-0.4-1.1-0.8-2.3-0.4-1.1-0.8-2.2-0.3-1.2-0.6-2.3-0.2-1.2-0.5-2.3c-0.4-2.9-1.1-6.1-1.1-9.7q-2.2 2.3-4.6 4.5-2.4 2.2-4.9 4.2-2.5 2-5.2 3.8-2.7 1.9-5.5 3.5-3.5 2-7.2 3.5-3.8 1.5-7.7 2.4-3.9 1-7.9 1.5-4 0.5-8 0.4-4.9 0.2-9.8-0.5-4.9-0.7-9.5-2.3-4.7-1.6-8.9-4.1-4.3-2.4-8.1-5.6-3.6-3.3-6.4-7.4-2.9-4-4.7-8.6-1.9-4.6-2.7-9.5-0.8-4.8-0.5-9.8c0-19.6 7.9-34 23.3-42.8q4.3-2.2 8.8-3.9 4.6-1.7 9.2-3 4.7-1.3 9.5-2.1 4.8-0.9 9.6-1.3l14.4-1.8q2.1-0.2 4.3-0.5 2.1-0.3 4.2-0.8 2.1-0.4 4.2-1 2-0.6 4.1-1.3 1.9-0.6 3.6-1.8 1.6-1.1 2.8-2.7 1.2-1.7 1.9-3.6 0.7-1.9 0.7-3.9 0.2-2-0.2-4-0.3-2-1.3-3.8-0.9-1.8-2.3-3.3-1.4-1.5-3.1-2.5-2.4-1.1-4.9-1.8-2.5-0.8-5.1-1.3-2.6-0.5-5.2-0.6-2.6-0.2-5.2-0.1-2.9-0.3-5.8 0.1-3 0.3-5.7 1.3-2.8 0.9-5.3 2.4-2.5 1.6-4.6 3.6-1.2 1.6-2.2 3.4-0.9 1.7-1.7 3.6-0.7 1.8-1.2 3.8-0.5 1.9-0.7 3.9h-40.7q0.1-4.7 0.9-9.3 0.8-4.6 2.3-9 1.5-4.4 3.6-8.6 2.1-4.1 4.9-7.9 16.7-21.2 57.4-21.2 6.1-0.1 12.1 0.5 6.1 0.6 12 1.9 6 1.3 11.7 3.3 5.8 2 11.2 4.7c13.8 7 20.7 20.2 20.7 39.5v73.6c0 5.1 0.3 11.3 0.3 18.6q-0.1 1.4 0 2.9 0.2 1.4 0.5 2.9 0.3 1.4 0.8 2.7 0.5 1.4 1.2 2.7 0.5 0.8 1.2 1.6zm-45.7-68.6q-0.9 0.6-1.9 1.2-1 0.5-2 1-1.1 0.5-2.1 1-1 0.4-2.1 0.8-1.4 0.5-2.8 0.9-1.4 0.4-2.8 0.8-1.4 0.4-2.8 0.7-1.4 0.3-2.9 0.5l-9.6 1.8q-2.5 0.3-4.9 0.8-2.5 0.5-4.9 1.3-2.5 0.7-4.8 1.6-2.4 1-4.6 2.1-2.4 1.3-4.3 3.2-2 1.9-3.3 4.2-1.3 2.4-1.9 5-0.6 2.7-0.5 5.4-0.2 2.1 0.1 4.3 0.2 2.1 1 4.2 0.7 2 1.9 3.8 1.2 1.8 2.8 3.2 1.6 1.2 3.4 2.2 1.7 0.9 3.6 1.5 1.9 0.6 3.8 0.9 2 0.3 4 0.2 3.4 0 6.7-0.5 3.4-0.5 6.6-1.5 3.2-1 6.3-2.5 3-1.5 5.8-3.4 11.6-8.1 12-29.1z"/>
			<path id="Layer" class="s1" d="m1165.3 170.6c0-16.2 12.5-27.1 35.6-27.1 23.1 0 39.2 8.8 42.6 33.2h18.5c-4.6-35.6-26.8-49.6-60.8-49.6-34.8 0-55.3 18.9-55.3 45 0 62 100.9 29.8 100.9 75.4 0 15.3-12.4 29.1-38.9 29.1-27.4 0-41.4-10.1-47.1-37.1h-18.6c1.5 29.8 22.8 53.5 59.9 53.5 37.2 0 63.9-15.8 63.9-45.9 0.3-60.5-100.7-33.7-100.7-76.5z"/>
			<path id="Layer" class="s1" d="m1428.4 170.6c0-16.2 12.5-27.1 35.6-27.1 23.1 0 39.2 8.8 42.6 33.2h18.5c-4.5-35.6-26.7-49.6-60.8-49.6-34.8 0-55.3 18.9-55.3 45 0 62 100.9 29.8 100.9 75.4 0 15.3-12.4 29.1-38.9 29.1-27.4 0-41.4-10.1-47.1-37.1h-18.6c1.6 29.8 22.8 53.5 60 53.5 37.1 0 63.8-15.8 63.8-45.9 0.3-60.5-100.7-33.7-100.7-76.5z"/>
			<path id="Layer" class="s1" d="m1386.3 131.4l-50.6 135.2-50.4-135.2h-20.4l61.1 158.6 0.6 1.3-16.1 43.1h18.8l76.7-203h-19.7z"/>
			<path id="Layer" class="s1" d="m744.5 123.7q-4.1-0.2-8.2 0.3-4.1 0.6-8 1.8-3.9 1.3-7.6 3.2-3.6 1.9-6.9 4.5-2.5 2.3-4.9 4.9-2.3 2.6-4.4 5.3-2.2 2.8-4.1 5.7-1.9 2.9-3.5 6v-27.7h-40.1v160h42.3v-76.7q-0.2-3.7 0-7.3 0.2-3.6 0.8-7.2 0.6-3.6 1.6-7.1 1-3.5 2.5-6.9 8.7-16.4 34-16.4h5c1.5 0 3.2 0 4.9 0.4v-42.8h-1.4z"/>
			<path id="Layer" fill-rule="evenodd" class="s1" d="m1533.2 127.8c1.2 0.4 2.4 1.2 3.3 2.1 0.9 0.9 1.7 2 2.2 3.3 0.5 1.2 0.7 2.5 0.7 3.8 0 4-2.4 7.7-6.1 9.2-3.8 1.6-8 0.7-10.9-2.1-2.9-2.9-3.7-7.1-2.2-10.9 1.5-3.7 5.1-6.2 9.2-6.2 1.3 0 2.6 0.3 3.8 0.8zm1.9 14.9c1.5-1.5 2.3-3.5 2.3-5.7 0-2.1-0.8-4.2-2.3-5.7-1.5-1.5-3.6-2.4-5.7-2.4-2.2 0-4.2 0.9-5.7 2.4-1.5 1.5-2.4 3.6-2.4 5.7 0 2.2 0.9 4.2 2.4 5.7 1.5 1.5 3.5 2.4 5.7 2.4 2.1 0 4.2-0.9 5.7-2.4z"/>
			<path id="Layer" fill-rule="evenodd" class="s1" d="m1533.4 139.4q0 0.3 0.1 0.6 0 0.3 0 0.6 0.1 0.3 0.2 0.5 0 0.3 0.1 0.6h-2q-0.1-0.3-0.1-0.6-0.1-0.3-0.1-0.5-0.1-0.3-0.1-0.6 0-0.3 0-0.6c-0.1-0.9-0.5-1.3-1.5-1.3h-2.1v3.6h-2v-9.3h5q0.5 0 1 0.2 0.5 0.1 0.9 0.5 0.4 0.4 0.6 0.9 0.2 0.5 0.2 1 0 0.3-0.1 0.7-0.1 0.4-0.3 0.7-0.2 0.3-0.5 0.5-0.3 0.3-0.6 0.4c1 0.2 1.3 1.2 1.3 2.1zm-1.9-4.1q0-1.3-1.4-1.3h-2.2v2.6h2.2q1.4 0 1.4-1.3z"/>
		</g>
	</g>
</svg>