<svg version="1.2" xmlns="http://www.w3.org/2000/svg" viewBox="0 0 1540 464" width="1540" height="464">
	<title>stratasys-logo-svg</title>
	<style>
		.s0 { fill: #ffffff } 
	</style>
	<path id="Layer" class="s0" d="m684.7 117.2l-38.6 41.3v27.5 91c0 9.2 2 16.4 6.6 20.3 6.5 7.2 19.6 10.5 37.3 9.2l18.3-0.7v-28.8q-1.9 0-3.9 0-2 0-3.9 0c-7.9 0-12.5-0.6-14.4-1.9-1.4-1.4-2-5.3-2-11.2v-78.6h24.2v-27.5h-24.2z"/>
	<path id="Layer" class="s0" d="m620.6 229.2c-4.6-3.3-9.9-5.9-15.1-7.8-5.9-2-11.8-4-17.7-5.3-5.9-1.3-11.8-2.6-17-3.9-5.9-1.3-10.5-2.6-15.1-3.9-4.6-1.4-7.8-3.3-10.4-5.9-2.7-2.7-4-5.3-4-9.2 0-3.3 0.7-5.9 2-7.2q2-3 5.9-3.9c1.9-1.3 4.6-2 7.2-2 2.6 0 5.2-0.7 7.8-0.7 7.2 0 13.8 1.4 19 4 5.3 2.6 8.6 7.8 9.2 16.3h39.3c-0.7-9.1-3.3-17-7.2-23.5-3.9-5.9-9.2-11.2-15.1-15.1-5.9-3.9-13.1-6.5-20.3-7.9-7.2-1.3-15.7-2.6-23.5-2.6-7.9 0-16.4 0.7-23.6 2-7.9 1.3-14.4 3.9-21 7.8-5.9 4-11.1 8.6-15 15.1-4 5.9-5.9 14.4-5.9 24.2 0 6.6 1.3 12.5 3.9 17.1 2.6 4.6 5.9 8.5 10.5 11.1 4.6 3.3 9.8 5.2 15 7.2 5.9 2 11.8 3.3 17.7 5.2 14.4 3.3 26.2 5.9 34.7 9.2 7.9 3.3 12.5 7.9 12.5 14.4 0 4-1.3 7.2-2.6 9.2-2 2.6-4 4.6-6.6 5.9-2.6 1.3-5.2 2.6-8.5 3.3-3.3 0.6-5.9 1.3-9.2 1.3-3.9 0-7.8-0.7-11.8-1.3-3.9-1.3-7.2-2.7-9.8-4.6-2.6-2-5.2-4.6-7.2-7.9-2-3.3-2.6-7.2-2.6-11.8h-39.3c0.6 10.5 2.6 18.4 7.2 25.6 3.9 6.5 9.2 12.4 16.4 16.3 6.5 4 13.7 7.2 22.2 9.2 8.5 2 17.1 2.6 25.6 2.6 8.5 0 17-0.6 25.5-2.6 7.9-2 15.7-4.6 22.3-8.5 6.5-3.9 11.8-9.8 15.7-16.4 3.9-6.5 5.9-15 5.9-24.9q0-10.8-3.9-17.6c-5.3-5.3-8.5-9.2-13.1-12.5z"/>
	<path id="Layer" fill-rule="evenodd" class="s0" d="m948.7 299.9v5.9h-41.9c-1.3-3.2-2-5.9-2.7-8.5-0.6-2.6-1.3-5.9-1.3-9.1-5.2 5.9-11.1 11.1-18.3 15-8.5 4.6-18.3 7.2-28.8 7.2-13.8 0-24.9-3.9-33.4-11.1-8.5-7.9-13.1-18.3-13.1-32.8 0-18.3 7.2-32 21.6-39.9 7.2-3.9 19-7.2 34-9.2l13.1-1.9c7.2-0.7 11.8-2 15.1-3.3 5.9-2.6 8.5-5.9 8.5-11.1 0-5.9-2.6-10.5-6.5-12.5-4.6-2-11.2-3.3-19-3.3-9.2 0-15.7 2-19.7 6.6-2.6 3.3-3.9 7.8-5.2 13.7h-37.3c0.6-13.1 4.5-23.5 11.1-32.1q15.7-19.6 53-19.6c15.8 0 31.5 2.6 43.9 9.2 12.5 6.5 19 19 19 36.6 0 4.6 0 78.6 0 85.2 0 5.2 0.7 8.5 2 10.5 1.3 1.9 3.3 3.2 5.9 4.5zm-47.8-66.8c-2 2-4.6 3.3-7.2 4-2.7 0.6-5.9 1.9-10.5 2.6l-9.2 2c-7.8 1.3-13.7 3.2-17.7 5.2-5.9 3.3-9.1 9.2-9.1 16.4 0 6.5 1.9 11.1 5.9 14.4 3.9 3.3 8.5 4.6 13.7 4.6 8.5 0 16.4-2 23.6-7.2 7.2-5.3 11.1-13.8 11.1-26.9z"/>
	<path id="Layer" class="s0" d="m1014.8 278.3c-1.3 0-1.9 0-2.6 0-7.8 0-12.4-0.6-14.4-1.9-1.3-1.3-2-5.3-2-11.2v-78.5h24.3v-27.6h-24.3v-41.2l-36.6 41.2v27.6 91c0 9.2 1.9 16.4 6.5 20.3 5.9 5.9 15.1 9.2 30.8 9.8 23.6 0.7 32.1-1.3 32.1-1.3-7.2-7.9-11.8-17-13.8-28.2z"/>
	<path id="Layer" fill-rule="evenodd" class="s0" d="m1168.1 299.3v5.9h-41.9c-1.3-3.3-2-5.9-2.7-8.5-0.6-2.6-1.3-5.9-1.3-9.2-5.2 5.9-11.1 11.1-18.3 15.1-8.5 4.5-18.3 7.2-28.8 7.2-13.8 0-24.9-3.3-33.4-11.2-8.5-7.8-13.1-18.3-13.1-32.7 0-18.3 7.2-32.1 21.6-40 7.2-3.9 19-7.2 34-9.1l13.1-2c7.3-0.6 11.8-2 15.1-3.3 5.9-2.6 8.5-5.9 8.5-11.1 0-5.9-2.6-10.5-6.5-12.4-4.6-2-11.2-3.3-19-3.3-9.2 0-15.7 1.9-19.7 6.5-2.6 3.3-3.9 7.9-5.2 13.8h-37.3c0.6-13.1 4.6-23.6 11.1-32.1q15.7-19.7 53-19.7c15.8 0 30.8 3.3 43.3 9.9 12.4 6.5 19 19 19 36.6 0 4.6 0 78.6 0 85.2 0 5.2 0.6 8.5 1.9 10.5 2 1.9 3.3 3.2 6.6 3.9zm-47.8-66.2c-2 2-4.6 3.3-7.2 4-2.6 0.6-5.9 1.9-10.5 2.6l-9.2 2c-7.8 1.3-13.7 3.2-17.7 5.2-5.9 3.3-9.1 9.2-9.1 16.4 0 6.5 1.9 11.1 5.9 14.4 3.9 3.3 8.5 4.6 13.7 4.6 8.5 0 16.4-2 23.6-7.2 7.2-5.3 11.1-13.8 11.1-26.9z"/>
	<path id="Layer" class="s0" d="m1193.6 197.8c0-15.1 11.2-24.9 32.8-24.9 20.9 0 36 7.8 39.3 30.8h17c-3.9-32.8-24.9-45.9-56.3-45.9-32.1 0-51.1 17.7-51.1 41.9 0 57 93 27.5 93 69.5 0 14.4-11.1 26.8-36 26.8-25.6 0-38-9.2-43.3-34h-16.3c1.3 27.5 20.9 49.1 55 49.1 34 0 58.9-14.4 58.9-42.6 0.7-55.7-93-31.4-93-70.7z"/>
	<path id="Layer" class="s0" d="m1436.6 197.8c0-15.1 11.1-24.9 32.8-24.9 20.9 0 36 7.8 39.2 30.8h17.1c-4-32.8-24.9-45.9-56.3-45.9-32.1 0-51.1 17.7-51.1 41.9 0 57 93 27.5 93 69.5 0 14.4-11.2 26.8-36.1 26.8-25.5 0-37.9-9.2-43.8-34h-16.4c1.3 27.5 20.9 49.1 55 49.1 34.1 0 59-14.4 59-42.6 1.3-55.7-92.4-31.4-92.4-70.7z"/>
	<path id="Layer" class="s0" d="m1398 161.8l-46.5 124.4-47.2-124.4h-18.3l56.3 146v1.3l-14.4 40h17.7l70.1-187.3z"/>
	<path id="Layer" class="s0" d="m805.3 154.6c-11.8 0-21 3.2-28.2 9.1-4.6 4-9.8 10.5-15.7 20.3v-25.5h-36.7v148h38.6v-71.4c0-11.8 1.4-20.3 4.6-26.2 5.3-10.5 15.7-15.1 31.5-15.1 1.3 0 2.6 0 4.5 0 1.4 0 3.3 0 4.6 0v-39.2c-0.6 0-1.3 0-1.3 0q-1 0-1.9 0z"/>
	<path id="Layer" fill-rule="evenodd" class="s0" d="m1539.4 167c0 5.2-3.9 9.2-9.1 9.2-5.3 0-9.2-4-9.2-9.2 0-5.2 3.9-9.2 9.2-9.2 5.2 0 9.1 4 9.1 9.2zm-1.9 0c0-3.9-3.3-7.2-7.2-7.2-4 0-7.2 3.3-7.2 7.2 0 3.9 3.2 7.2 7.2 7.2 3.9 0 7.2-3.3 7.2-7.2z"/>
	<path id="Layer" fill-rule="evenodd" class="s0" d="m1533.5 169q0 0.9 0 1.9h-1.9q0-1 0-1.9c0-0.7 0-1.3-1.3-1.3h-2v3.2h-2v-8.5h4.6c1.3 0 2.6 1.3 2.6 2.6 0 0.7 0 1.3-1.3 2 1.3 0 1.3 1.3 1.3 2zm-1.3-4c0-1.3-0.6-1.3-1.3-1.3h-1.9v2.6h1.9c0.7 0 1.3-0.6 1.3-1.3z"/>
	<path id="Layer" fill-rule="evenodd" class="s0" d="m288.8 231.8l88.4 74-188.6 157.9-188.6-157.9 88.4-74-88.4-74 188.6-157.8 188.6 157.8zm-255.4 81.2l147.4 123.8v-123.8zm134.2-15l-66.8-56.3-67.4 56.3zm28.8 138.8l148-123.8h-148zm0-286.8h148l-148-123.8zm-15.1 0v-123.8l-148 123.8zm-148 15.7l147.4 123.8v-123.8zm243.6 56.4l67.4-56.4h-134.2zm-80.6-47.8v123.8h148z"/>
</svg>